<?xml version="1.0" encoding="utf-8"?>
<!-- Generator: Adobe Illustrator 15.0.2, SVG Export Plug-In . SVG Version: 6.00 Build 0)  -->
<!DOCTYPE svg PUBLIC "-//W3C//DTD SVG 1.1//EN" "http://www.w3.org/Graphics/SVG/1.1/DTD/svg11.dtd">
<svg version="1.1" id="Layer_1" xmlns="http://www.w3.org/2000/svg" xmlns:xlink="http://www.w3.org/1999/xlink" x="0px" y="0px"
	 width="640px" height="920px" viewBox="0 0 640 920" enable-background="new 0 0 640 920" xml:space="preserve">
<g id="logo" transform="scale(1.88) translate(-208.89501,-287.329) ">
	<g id="coscup-word">
		<path id="path3065" fill="#3D9838" d="M324.807,523.306l-2.318,9.607h-3.252c0.075-0.299,0.143-0.635,0.205-1.009
			c0.062-0.374,0.094-0.847,0.094-1.42c0-1.32-0.224-2.355-0.673-3.103c-0.623-1.046-1.67-1.57-3.14-1.57
			c-1.895,0-3.901,1.244-6.019,3.731c-2.218,2.612-3.327,5.261-3.327,7.947c0,2.04,0.517,3.644,1.552,4.812
			c1.034,1.169,2.374,1.753,4.019,1.753c1.346,0,2.991-0.667,4.935-2c0.648-0.444,1.496-1.124,2.542-2.038l3.253,2.083
			c-0.474,0.446-0.935,0.88-1.384,1.302c-1.247,1.041-2.592,1.859-4.038,2.454c-2.118,0.893-4.312,1.339-6.579,1.339
			c-3.29,0-6.032-0.821-8.225-2.464c-2.442-1.841-3.664-4.379-3.664-7.615c0-4.354,1.894-7.9,5.683-10.638
			c3.589-2.588,8-3.882,13.233-3.882c1.197,0,2.717,0.112,4.561,0.336C322.889,523.007,323.736,523.133,324.807,523.306
			L324.807,523.306z"/>
		<path id="path3067" fill="#3D9838" d="M352.622,530.292c0,2.194-0.474,4.175-1.42,5.946c-0.798,1.497-2.119,3.173-3.963,5.031
			c-1.845,1.857-4.062,3.284-6.654,4.281c-2.268,0.873-4.474,1.309-6.617,1.309c-3.564,0-6.331-0.998-8.299-2.995
			c-1.845-1.872-2.767-4.33-2.767-7.376c0-2.546,0.723-5.005,2.168-7.376c1.046-1.722,2.405-3.307,4.075-4.755
			c1.271-1.098,2.006-1.647,2.206-1.647l6.579,0.038c-0.1,0-0.723,0.748-1.869,2.243c-1.445,1.869-2.617,3.714-3.514,5.533
			c-1.271,2.592-1.907,4.947-1.907,7.065c0,2.418,0.486,4.15,1.458,5.196c0.822,0.873,2.019,1.309,3.588,1.309
			c2.094,0,4.013-1.236,5.757-3.709c1.744-2.473,2.617-5.095,2.617-7.869c0-1.273-0.149-2.297-0.448-3.072
			c-0.374-0.973-1.035-1.687-1.981-2.136c-0.2-0.1-0.461-0.173-0.785-0.223c-0.324-0.05-0.648-0.075-0.972-0.075
			c-0.499,0-0.891,0.013-1.177,0.037c-0.287,0.025-0.567,0.075-0.841,0.15v-2.156l8.374-2.75c1.42,0.524,2.479,1.047,3.178,1.571
			C351.549,525.479,352.622,527.624,352.622,530.292L352.622,530.292z"/>
		<path id="path3069" fill="#3D9838" d="M378.565,522.895l-2.168,7.851h-3.065c0-0.125,0-0.224,0-0.299
			c0-0.274,0.013-0.549,0.038-0.822c0-0.698-0.05-1.314-0.149-1.851c-0.1-0.536-0.299-0.991-0.598-1.365
			c-0.374-0.448-0.866-0.785-1.477-1.009c-0.611-0.225-1.651-0.337-3.122-0.337c-1.819,0-3.327,0.312-4.523,0.935
			c-1.471,0.748-2.206,1.857-2.206,3.327c0,1.172,1.208,2.094,3.626,2.767c2.417,0.673,4.797,1.321,7.14,1.944
			c2.542,1.072,3.813,2.654,3.813,4.748c0,2.441-1.745,4.461-5.234,6.056c-3.116,1.42-6.592,2.131-10.43,2.131
			c-1.496,0-3.402-0.237-5.72-0.71c-0.772-0.15-1.807-0.398-3.103-0.748v-4.411c0.972,0.573,1.794,0.997,2.467,1.271
			c2.043,0.848,4.1,1.272,6.168,1.272c1.894,0,3.576-0.323,5.046-0.971c1.745-0.772,2.617-1.832,2.617-3.178
			c0-1.271-1.196-2.15-3.588-2.636c-2.393-0.486-4.735-0.966-7.028-1.439c-2.467-0.872-3.701-2.405-3.701-4.598
			c0-2.218,0.897-4.025,2.691-5.42c1.545-1.197,3.664-2.057,6.355-2.581c2.168-0.423,4.635-0.636,7.402-0.636
			c1.595,0,3.501,0.112,5.719,0.336C376.285,522.596,377.295,522.721,378.565,522.895L378.565,522.895z"/>
		<path id="path3071" fill="#3D9838" d="M403.089,523.306l-2.318,9.607h-3.252c0.074-0.299,0.143-0.635,0.205-1.009
			c0.062-0.374,0.093-0.847,0.093-1.42c0-1.32-0.224-2.355-0.672-3.103c-0.624-1.046-1.67-1.57-3.142-1.57
			c-1.894,0-3.899,1.244-6.019,3.731c-2.219,2.612-3.327,5.261-3.327,7.947c0,2.04,0.517,3.644,1.552,4.812
			c1.033,1.169,2.373,1.753,4.019,1.753c1.345,0,2.991-0.667,4.935-2c0.648-0.444,1.495-1.124,2.542-2.038l3.252,2.083
			c-0.474,0.446-0.935,0.88-1.383,1.302c-1.247,1.041-2.592,1.859-4.037,2.454c-2.118,0.893-4.312,1.339-6.58,1.339
			c-3.29,0-6.032-0.821-8.224-2.464c-2.443-1.841-3.665-4.379-3.665-7.615c0-4.354,1.894-7.9,5.682-10.638
			c3.59-2.588,8.001-3.882,13.234-3.882c1.196,0,2.716,0.112,4.561,0.336C401.169,523.007,402.015,523.133,403.089,523.306z"/>
		<path id="path3073" fill="#3D9838" d="M431.613,522.708l-6.057,24h-8.113l2.02-6.916c0.051-0.125,0.094-0.286,0.131-0.486
			c0.037-0.199,0.057-0.349,0.057-0.448c0-0.274-0.088-0.411-0.262-0.411c-0.177,0-0.35,0.1-0.524,0.299
			c-0.051,0.05-0.125,0.163-0.224,0.336c-0.498,0.723-0.996,1.446-1.494,2.168c-1.298,1.645-2.654,2.99-4.077,4.038
			c-1.969,1.445-3.914,2.168-5.832,2.168c-1.869,0-3.364-0.599-4.485-1.796c-1.121-1.199-1.683-2.833-1.683-4.905
			c0-0.849,0.125-1.935,0.375-3.257c0.074-0.449,0.211-1.048,0.41-1.797l3.701-12.992h8.111l-4.037,14.347
			c-0.025,0.075-0.082,0.312-0.168,0.711c-0.086,0.4-0.131,0.761-0.131,1.086c0,0.725,0.182,1.299,0.543,1.724
			c0.361,0.425,1.002,0.637,1.924,0.637c1.846,0,3.814-1.599,5.906-4.796c1.496-2.297,2.967-5.269,4.412-8.915
			c0.574-1.598,1.146-3.197,1.721-4.795H431.613z"/>
		<path id="path3075" fill="#3D9838" d="M460.771,529.19c0,2.922-1.121,5.233-3.363,6.931c-1.745,1.325-4.149,2.274-7.217,2.848
			c-2.018,0.375-4.225,0.562-6.617,0.562c-0.473,0-0.854-0.006-1.139-0.019c-0.287-0.012-0.543-0.031-0.768-0.057l0.637-2.287
			c0.896,0,1.781-0.062,2.654-0.187c2.117-0.3,3.787-0.837,5.01-1.612c1.795-1.124,2.689-2.698,2.689-4.723
			c0-1.674-0.467-2.967-1.4-3.88c-0.936-0.912-2.137-1.368-3.607-1.368h-3.889l-5.755,21.383h-7.852l6.318-24.075h14.691
			c2.541,0,4.711,0.512,6.506,1.536C459.735,525.444,460.771,527.092,460.771,529.19L460.771,529.19z"/>
	</g>
	<g id="coscup-arrow">
		<path id="path3081" fill="#DFEEDE" d="M378.496,514.801l-4.142-13.067l-2.156,3.735c-25.986-12.546-37.24,12.111-37.24,12.111
			s9.36-18.03,32.307-3.565l-2.156,3.734L378.496,514.801L378.496,514.801z"/>
	</g>
	<g id="coscup-arrow1">
		<path id="path3087" fill="#DFEEDE" d="M395.112,505.715l-4.142-13.067l-2.156,3.735c-25.986-12.546-37.241,12.111-37.241,12.111
			s9.36-18.031,32.307-3.566l-2.156,3.734L395.112,505.715z"/>
	</g>
</g>
</svg>
