<?xml version="1.0" encoding="UTF-8" standalone="no"?>
<svg
   xmlns:dc="http://purl.org/dc/elements/1.1/"
   xmlns:svg="http://www.w3.org/2000/svg"
   xmlns="http://www.w3.org/2000/svg"
   version="1.1"
   id="coscup-logo"
   x="0px"
   y="0px"
   width="305"
   height="121"
   viewBox="0 0 305 121"
   xml:space="preserve">
<g
   id="logo"
   transform="scale(1.88) translate(-208.89501,-287.329) ">
	<g
id="coscup-word">
		<path
style="fill:#3b9838"
d="m 234.914,317.987 -2.318,9.607 h -3.252 c 0.075,-0.299 0.143,-0.635 0.205,-1.009 0.062,-0.374 0.094,-0.847 0.094,-1.42 0,-1.32 -0.224,-2.355 -0.673,-3.103 -0.623,-1.046 -1.67,-1.57 -3.14,-1.57 -1.895,0 -3.901,1.244 -6.019,3.731 -2.218,2.612 -3.327,5.261 -3.327,7.947 0,2.04 0.517,3.644 1.552,4.812 1.034,1.169 2.374,1.753 4.019,1.753 1.346,0 2.991,-0.667 4.935,-2 0.648,-0.444 1.496,-1.124 2.542,-2.038 l 3.253,2.083 c -0.474,0.446 -0.935,0.88 -1.384,1.302 -1.247,1.041 -2.592,1.859 -4.038,2.454 -2.118,0.893 -4.312,1.339 -6.579,1.339 -3.29,0 -6.032,-0.821 -8.225,-2.464 -2.442,-1.841 -3.664,-4.379 -3.664,-7.615 0,-4.354 1.894,-7.9 5.683,-10.638 3.589,-2.588 8,-3.882 13.233,-3.882 1.197,0 2.717,0.112 4.561,0.336 0.623,0.076 1.47,0.201 2.542,0.375 z"
id="path3065"
/>
		<path
style="fill:#3b9838"
d="m 262.728,324.972 c 0,2.194 -0.474,4.176 -1.42,5.946 -0.798,1.497 -2.119,3.173 -3.963,5.031 -1.845,1.857 -4.062,3.284 -6.654,4.281 -2.268,0.873 -4.474,1.309 -6.617,1.309 -3.564,0 -6.331,-0.998 -8.299,-2.995 -1.845,-1.872 -2.767,-4.33 -2.767,-7.376 0,-2.546 0.723,-5.005 2.168,-7.376 1.046,-1.722 2.405,-3.307 4.075,-4.755 1.271,-1.098 2.006,-1.647 2.206,-1.647 l 6.579,0.038 c -0.1,0 -0.723,0.748 -1.869,2.243 -1.445,1.869 -2.617,3.714 -3.514,5.533 -1.271,2.592 -1.907,4.947 -1.907,7.065 0,2.418 0.486,4.15 1.458,5.196 0.822,0.873 2.019,1.309 3.588,1.309 2.094,0 4.013,-1.236 5.757,-3.709 1.744,-2.473 2.617,-5.095 2.617,-7.868 0,-1.273 -0.149,-2.297 -0.448,-3.072 -0.374,-0.974 -1.035,-1.687 -1.981,-2.136 -0.2,-0.1 -0.461,-0.174 -0.785,-0.224 -0.324,-0.05 -0.648,-0.075 -0.972,-0.075 -0.499,0 -0.891,0.013 -1.177,0.037 -0.287,0.025 -0.567,0.075 -0.841,0.15 v -2.156 l 8.374,-2.75 c 1.42,0.524 2.479,1.047 3.178,1.571 2.142,1.618 3.214,3.763 3.214,6.43 z"
id="path3067"
/>
		<path
style="fill:#3b9838"
d="m 288.671,317.576 -2.168,7.851 h -3.065 c 0,-0.125 0,-0.224 0,-0.299 0,-0.274 0.013,-0.548 0.038,-0.822 0,-0.698 -0.05,-1.314 -0.149,-1.851 -0.1,-0.536 -0.299,-0.991 -0.598,-1.365 -0.374,-0.448 -0.866,-0.785 -1.477,-1.009 -0.611,-0.225 -1.651,-0.337 -3.122,-0.337 -1.819,0 -3.327,0.312 -4.523,0.935 -1.471,0.748 -2.206,1.857 -2.206,3.327 0,1.172 1.208,2.094 3.626,2.767 2.417,0.673 4.797,1.321 7.14,1.944 2.542,1.072 3.813,2.654 3.813,4.748 0,2.442 -1.745,4.461 -5.234,6.056 -3.116,1.42 -6.592,2.131 -10.43,2.131 -1.496,0 -3.402,-0.237 -5.72,-0.71 -0.772,-0.149 -1.807,-0.398 -3.103,-0.748 v -4.411 c 0.972,0.573 1.794,0.997 2.467,1.271 2.043,0.848 4.1,1.271 6.168,1.271 1.894,0 3.576,-0.323 5.046,-0.971 1.745,-0.772 2.617,-1.832 2.617,-3.178 0,-1.271 -1.196,-2.15 -3.588,-2.636 -2.393,-0.486 -4.735,-0.966 -7.028,-1.439 -2.467,-0.872 -3.701,-2.405 -3.701,-4.598 0,-2.218 0.897,-4.025 2.691,-5.42 1.545,-1.197 3.664,-2.057 6.355,-2.58 2.168,-0.423 4.635,-0.636 7.402,-0.636 1.595,0 3.501,0.112 5.719,0.336 0.75,0.074 1.76,0.199 3.03,0.373 z"
id="path3069"
/>
		<path
style="fill:#3b9838"
d="m 313.195,317.987 -2.318,9.607 h -3.252 c 0.074,-0.299 0.143,-0.635 0.205,-1.009 0.062,-0.374 0.094,-0.847 0.094,-1.42 0,-1.32 -0.225,-2.355 -0.672,-3.103 -0.624,-1.046 -1.67,-1.57 -3.142,-1.57 -1.894,0 -3.899,1.244 -6.019,3.731 -2.219,2.612 -3.327,5.261 -3.327,7.947 0,2.04 0.517,3.644 1.552,4.812 1.033,1.169 2.373,1.753 4.019,1.753 1.345,0 2.991,-0.667 4.935,-2 0.648,-0.444 1.495,-1.124 2.542,-2.038 l 3.252,2.083 c -0.474,0.446 -0.935,0.88 -1.383,1.302 -1.247,1.041 -2.592,1.859 -4.037,2.454 -2.118,0.893 -4.312,1.339 -6.58,1.339 -3.29,0 -6.032,-0.821 -8.224,-2.464 -2.443,-1.841 -3.665,-4.379 -3.665,-7.615 0,-4.354 1.894,-7.9 5.682,-10.638 3.59,-2.588 8.001,-3.882 13.234,-3.882 1.196,0 2.716,0.112 4.561,0.336 0.623,0.076 1.47,0.201 2.543,0.375 z"
id="path3071"
/>
		<path
style="fill:#3b9838"
d="m 341.719,317.389 -6.057,24 h -8.113 l 2.02,-6.916 c 0.051,-0.125 0.094,-0.286 0.131,-0.486 0.037,-0.199 0.057,-0.349 0.057,-0.448 0,-0.274 -0.088,-0.411 -0.262,-0.411 -0.176,0 -0.35,0.1 -0.523,0.299 -0.051,0.05 -0.125,0.163 -0.225,0.336 -0.498,0.723 -0.996,1.446 -1.494,2.168 -1.297,1.645 -2.654,2.99 -4.076,4.038 -1.969,1.445 -3.914,2.168 -5.832,2.168 -1.869,0 -3.364,-0.599 -4.485,-1.796 -1.121,-1.199 -1.683,-2.833 -1.683,-4.905 0,-0.849 0.125,-1.935 0.375,-3.257 0.074,-0.449 0.211,-1.048 0.41,-1.797 l 3.701,-12.992 h 8.111 l -4.037,14.347 c -0.025,0.075 -0.082,0.312 -0.168,0.711 -0.086,0.4 -0.131,0.762 -0.131,1.086 0,0.725 0.182,1.299 0.543,1.723 0.361,0.425 1.002,0.637 1.924,0.637 1.846,0 3.814,-1.599 5.906,-4.795 1.496,-2.297 2.967,-5.269 4.412,-8.915 0.574,-1.598 1.146,-3.197 1.721,-4.795 h 7.775 z"
id="path3073"
/>
		<path
style="fill:#3b9838"
d="m 370.877,323.871 c 0,2.922 -1.121,5.233 -3.363,6.931 -1.746,1.325 -4.15,2.274 -7.217,2.848 -2.018,0.375 -4.225,0.562 -6.617,0.562 -0.473,0 -0.854,-0.006 -1.139,-0.019 -0.287,-0.012 -0.543,-0.031 -0.768,-0.057 l 0.637,-2.287 c 0.896,0 1.781,-0.062 2.654,-0.187 2.117,-0.3 3.787,-0.837 5.01,-1.612 1.795,-1.124 2.689,-2.698 2.689,-4.723 0,-1.674 -0.467,-2.967 -1.4,-3.88 -0.936,-0.912 -2.137,-1.368 -3.607,-1.368 h -3.889 l -5.756,21.383 h -7.852 l 6.318,-24.075 h 14.691 c 2.541,0 4.711,0.512 6.506,1.536 2.068,1.202 3.103,2.85 3.103,4.948 z"
id="path3075"
/>
	</g>
	<g
id="coscup-arrow">
		<path
style="fill:#dfefde"
d="m 288.602,309.482 -4.142,-13.067 -2.156,3.735 c -25.986,-12.546 -37.24,12.111 -37.24,12.111 0,0 9.36,-18.03 32.307,-3.565 l -2.156,3.734 13.387,-2.948 z"
id="path3081"
/>
	</g>
	<g
id="coscup-arrow1">
		<path
style="fill:#dfefde"
d="m 305.218,300.396 -4.142,-13.067 -2.156,3.735 c -25.986,-12.546 -37.241,12.111 -37.241,12.111 0,0 9.36,-18.031 32.307,-3.566 l -2.156,3.734 13.388,-2.947 z"
id="path3087"
/>
	</g>
</g>
</svg>